<?xml version="1.0" standalone="no"?>
<!DOCTYPE svg PUBLIC "-//W3C//DTD SVG 20010904//EN"
 "http://www.w3.org/TR/2001/REC-SVG-20010904/DTD/svg10.dtd">
<svg version="1.0" xmlns="http://www.w3.org/2000/svg"
 width="700.000000pt" height="420.000000pt" viewBox="0 0 700.000000 420.000000"
 preserveAspectRatio="xMidYMid meet">
<metadata>
Created by potrace 1.15, written by Peter Selinger 2001-2017
</metadata>
<g transform="translate(0.000000,420.000000) scale(0.100000,-0.100000)"
fill="#000000" stroke="none">
<path d="M3535 4133 c-37 -5 -73 -21 -102 -46 -17 -15 -30 -18 -56 -13 -25 5
-38 2 -47 -9 -7 -8 -33 -20 -57 -27 -49 -12 -77 -44 -67 -74 4 -10 19 -32 34
-49 18 -19 29 -46 33 -73 3 -23 15 -60 26 -82 24 -47 27 -73 7 -89 -18 -15
-41 -5 -54 25 -7 13 -16 24 -22 24 -15 0 -32 -50 -26 -75 6 -24 78 -75 106
-75 22 0 70 -37 67 -53 -1 -6 7 -11 18 -12 11 0 19 -6 17 -12 -1 -7 3 -13 9
-13 7 0 10 -12 6 -33 -3 -20 0 -40 9 -51 7 -11 11 -23 8 -27 -3 -5 2 -9 10 -9
20 0 21 -34 1 -53 -8 -8 -12 -17 -9 -20 3 -2 -5 -7 -17 -10 -19 -5 -21 -2 -17
24 4 28 4 28 -14 12 -10 -9 -16 -23 -14 -30 3 -7 1 -15 -4 -18 -14 -8 -13 -52
1 -61 8 -5 8 -9 -1 -14 -20 -12 -1 -31 24 -24 17 4 27 -1 42 -23 10 -15 18
-35 19 -43 0 -10 9 -14 27 -12 42 4 71 -14 58 -38 -12 -22 -3 -50 16 -50 20 0
18 -67 -2 -78 -12 -7 -13 -11 -5 -17 7 -4 20 0 30 9 20 18 47 21 56 6 9 -14
62 -12 72 3 16 26 13 45 -7 40 -30 -8 -25 25 5 37 30 11 34 25 5 17 -24 -6
-25 1 -5 30 14 20 14 24 -4 42 -16 16 -17 22 -7 37 7 9 18 14 24 10 7 -4 12
-2 12 3 0 6 7 11 15 11 8 0 15 4 15 9 0 4 11 20 25 36 25 26 25 29 12 69 -12
36 -18 41 -44 41 -37 0 -62 20 -56 43 2 10 -3 31 -11 47 -14 27 -14 30 4 42
11 8 22 31 26 58 4 28 11 45 20 45 18 0 38 37 24 45 -5 3 -10 12 -10 18 0 7 4
6 10 -3 9 -13 11 -13 19 0 7 10 4 18 -10 28 -11 7 -16 19 -13 25 4 7 4 9 -1 5
-4 -4 -13 -4 -20 2 -6 5 -28 7 -48 3 -37 -6 -37 -6 -22 -29 23 -35 18 -38 -10
-8 -15 17 -23 34 -20 45 7 20 -10 34 -27 22 -7 -4 -22 -8 -33 -8 -11 -1 -28
-5 -39 -10 -12 -5 -21 -3 -26 6 -16 25 10 39 71 39 51 0 61 3 75 25 16 24 16
103 0 150 -11 32 15 57 60 59 l39 1 8 -70 c10 -86 9 -159 -3 -189 -7 -20 -2
-25 70 -59 43 -20 89 -37 101 -37 13 0 36 -6 50 -14 22 -11 30 -11 58 3 37 18
77 81 68 105 -4 9 -26 25 -49 35 -51 21 -63 35 -72 77 -6 25 -2 37 18 60 13
16 36 36 50 44 50 26 45 54 -20 120 -44 45 -63 58 -79 54 -13 -3 -30 3 -45 16
-14 12 -30 18 -39 14 -9 -4 -36 -10 -60 -15 -25 -5 -60 -18 -78 -29 -26 -15
-39 -18 -54 -10 -10 6 -19 15 -19 21 0 5 -11 21 -25 34 -24 25 -40 27 -110 18z"/>
<path d="M2752 3991 c-4 -3 -12 -15 -18 -26 -8 -14 -22 -20 -45 -20 -23 0 -36
-6 -44 -20 -5 -11 -22 -41 -37 -67 -48 -80 -32 -123 43 -120 48 2 75 -10 82
-37 7 -29 -7 -45 -35 -38 -35 9 -111 -70 -106 -110 4 -38 30 -40 62 -6 l26 28
35 -19 c35 -19 36 -19 84 1 56 23 69 19 102 -33 22 -36 22 -36 2 -62 -11 -15
-34 -30 -52 -33 -60 -12 -107 -80 -63 -93 9 -3 40 -8 67 -12 28 -3 59 -14 70
-24 30 -27 77 -30 90 -5 29 59 78 123 100 133 14 6 25 18 25 26 0 7 7 19 15
26 8 7 15 23 15 35 0 31 -46 110 -75 129 -28 19 -32 38 -10 56 8 7 15 21 15
31 0 9 6 24 13 31 22 22 37 55 37 83 0 37 -55 62 -101 46 -26 -9 -35 -8 -49 4
-19 17 -45 12 -54 -11 -10 -25 -34 -3 -41 36 -9 53 -35 74 -95 75 -28 1 -53
-1 -58 -4z"/>
<path d="M4628 3743 c-32 -5 -58 -37 -58 -70 0 -32 -42 -57 -83 -49 -18 3 -55
0 -83 -7 -47 -12 -52 -12 -62 4 -7 10 -28 21 -48 25 -29 5 -40 2 -56 -14 -20
-20 -20 -23 -6 -81 15 -59 15 -62 -5 -89 -35 -47 -36 -47 -53 -24 -26 37 -56
24 -113 -51 -12 -15 -12 -17 3 -11 9 3 16 1 16 -4 0 -6 15 -12 33 -14 24 -2
33 -8 35 -26 2 -12 7 -20 11 -18 4 3 6 -7 4 -22 -5 -32 37 -82 67 -82 10 0 22
-5 25 -10 4 -6 15 -8 26 -5 15 5 19 1 19 -18 0 -13 5 -39 12 -57 10 -31 12
-32 24 -15 11 15 14 16 19 3 3 -8 1 -27 -5 -42 -10 -27 -13 -28 -65 -10 -16 6
-38 -13 -31 -24 5 -8 15 -8 32 -2 21 9 27 6 45 -23 11 -17 22 -44 26 -59 5
-27 13 -33 67 -49 35 -10 76 -2 76 16 0 7 -9 23 -19 36 l-19 24 -12 -27 c-20
-43 -60 -48 -60 -8 0 10 -4 22 -10 25 -5 3 -10 15 -10 26 0 11 -7 19 -16 19
-28 0 -9 24 26 33 28 7 36 5 47 -10 35 -51 46 -51 81 0 28 42 28 51 0 44 -31
-8 -78 22 -78 50 0 25 19 30 39 11 7 -7 4 3 -6 22 -17 30 -25 35 -56 35 -19 0
-39 3 -42 7 -4 4 -16 3 -26 -3 -15 -7 -19 -6 -19 5 0 10 6 13 15 10 10 -4 15
0 15 14 0 14 10 24 34 33 19 7 32 17 30 24 -6 16 38 65 58 65 9 0 21 8 27 17
9 17 14 16 66 -10 31 -15 61 -24 67 -20 21 12 73 76 84 103 14 31 58 47 80 29
24 -20 18 -86 -11 -111 -13 -11 -30 -37 -36 -57 -6 -20 -17 -43 -23 -51 -7 -8
-17 -27 -24 -42 -6 -16 -16 -28 -22 -28 -22 0 -8 -48 25 -87 40 -47 71 -60 80
-33 5 16 24 26 77 44 10 3 24 21 32 41 15 35 36 44 65 26 21 -13 5 -45 -44
-90 -25 -23 -45 -50 -45 -60 0 -10 -7 -24 -15 -31 -19 -16 -19 -50 0 -87 33
-63 49 -108 47 -131 -1 -15 6 -31 18 -39 11 -8 20 -20 20 -26 0 -24 71 -117
89 -117 36 0 46 -26 30 -78 -14 -43 -20 -49 -79 -79 -48 -23 -68 -29 -78 -21
-7 6 -11 17 -8 24 3 7 -2 15 -11 18 -13 5 -15 16 -10 56 6 53 -3 69 -25 46
-20 -20 -104 -44 -93 -27 2 5 20 12 39 15 39 7 61 29 50 48 -12 18 -14 39 -4
33 5 -3 11 -1 15 5 3 5 3 10 -2 10 -4 0 -8 14 -9 30 -1 17 2 30 6 30 12 0 -1
83 -15 99 -20 21 -59 6 -90 -35 -24 -32 -26 -38 -13 -48 8 -6 20 -22 27 -36
12 -22 -29 20 -65 69 -10 12 -18 13 -50 4 -63 -19 -80 -21 -98 -11 -13 7 -16
5 -16 -12 0 -20 -1 -20 -33 4 -19 15 -41 26 -50 26 -10 0 -17 8 -17 20 0 14
-7 20 -22 20 -34 0 -68 11 -63 20 3 5 -9 13 -25 19 -17 5 -30 14 -30 19 0 5
-9 12 -20 15 -21 5 -28 -7 -10 -18 17 -11 11 -37 -7 -33 -10 2 -17 9 -16 16 2
6 -7 17 -18 23 -17 9 -23 8 -30 -2 -13 -20 -11 -29 6 -35 16 -7 20 -30 7 -38
-5 -3 -18 -3 -30 1 -17 4 -20 10 -15 34 4 24 2 29 -20 34 -34 9 -52 50 -33 77
21 30 4 63 -25 48 -11 -6 -16 -16 -13 -22 4 -6 3 -8 -4 -4 -6 3 -14 21 -17 38
-4 18 -18 40 -31 51 -13 10 -24 25 -24 33 0 8 -7 14 -15 14 -20 0 -36 41 -23
57 13 16 -6 25 -36 17 -31 -7 -60 -39 -53 -58 3 -7 -3 -23 -14 -34 -10 -12
-19 -25 -19 -31 0 -5 -5 -11 -10 -13 -6 -2 -12 -13 -13 -25 0 -13 -7 -25 -14
-27 -7 -3 -13 -16 -13 -28 -1 -13 -11 -36 -24 -52 -22 -26 -25 -27 -47 -13
-25 16 -76 20 -84 6 -3 -4 -1 -10 5 -14 15 -9 -42 -86 -59 -80 -7 3 -29 3 -47
-1 -30 -6 -33 -8 -22 -27 l11 -21 8 22 c7 19 11 21 27 11 11 -7 17 -20 15 -29
-5 -17 20 -50 38 -50 13 0 11 18 -3 22 -22 8 1 38 28 38 15 0 33 8 40 18 16
20 18 58 4 67 -5 3 -10 -2 -10 -12 0 -19 -18 -43 -31 -43 -5 0 -6 20 0 53 0 5
5 6 10 3 5 -3 12 2 16 12 6 16 7 16 16 0 6 -10 18 -18 28 -18 31 0 41 -21 27
-55 -9 -21 -10 -35 -2 -47 7 -12 6 -21 -3 -32 -18 -21 -28 -20 -36 4 -7 23
-25 27 -25 6 0 -8 7 -16 15 -20 8 -3 15 -12 15 -20 0 -20 38 -27 49 -9 7 13
12 13 40 -1 38 -20 54 -13 49 23 -3 21 0 26 18 26 14 0 19 -4 14 -10 -8 -9 -9
-21 -10 -97 -1 -26 -10 -33 -34 -29 -24 5 -37 -9 -26 -28 5 -11 11 -31 12 -44
2 -20 5 -22 25 -13 29 14 29 22 1 29 -29 8 -15 21 23 23 37 2 62 22 56 46 -3
10 -1 21 4 24 5 3 9 -3 9 -13 0 -16 2 -15 21 4 22 22 19 43 -7 43 -22 0 -17
13 22 59 20 23 34 45 31 48 -12 12 -39 -8 -50 -37 -11 -28 -47 -44 -47 -20 0
6 6 10 14 10 7 0 21 11 30 25 10 15 12 25 6 25 -6 0 -8 5 -5 10 4 6 13 9 21 8
8 -2 25 11 40 27 l25 30 -18 -29 -17 -29 28 7 c25 6 27 5 21 -14 -7 -22 4 -27
22 -9 17 17 95 18 81 2 -13 -16 15 -29 34 -16 7 4 27 8 43 9 70 2 73 3 68 24
-7 27 23 27 32 0 3 -11 24 -37 46 -58 l39 -39 -26 -11 c-15 -7 -23 -8 -19 -2
3 6 0 17 -9 25 -9 9 -17 11 -21 5 -10 -16 -45 -12 -45 5 0 18 -9 19 -44 5 -14
-5 -26 -16 -26 -25 0 -20 17 -19 28 1 8 15 12 15 40 0 18 -9 32 -23 32 -31 0
-14 11 -19 38 -16 6 1 12 -3 12 -9 0 -5 7 -10 15 -10 12 0 14 -8 11 -32 -2
-18 -7 -41 -11 -50 -10 -25 40 -56 66 -40 27 17 37 15 70 -12 28 -24 47 -26
116 -11 35 8 89 -19 97 -48 6 -25 35 -40 73 -37 23 1 24 -7 7 -79 -4 -18 4
-32 38 -64 24 -22 38 -37 31 -33 -6 3 -26 -6 -43 -21 -28 -23 -36 -25 -60 -16
-29 11 -77 7 -96 -9 -20 -15 -41 1 -36 28 5 27 -9 32 -28 9 -18 -21 -33 -19
-27 5 3 11 1 18 -4 14 -5 -3 -9 3 -9 13 0 27 -20 45 -36 33 -8 -7 -20 -7 -38
0 -27 10 -34 26 -14 32 7 3 9 11 3 24 -7 17 -8 17 -12 2 -6 -23 -19 -23 -32 0
-13 22 -14 11 -1 -23 9 -24 8 -26 -7 -20 -10 4 -24 8 -30 8 -16 0 -17 23 -3
32 17 11 0 26 -22 19 -13 -4 -18 -2 -14 4 3 6 1 14 -5 18 -7 4 -20 -4 -31 -20
-11 -14 -25 -23 -30 -20 -6 4 -8 2 -4 -4 3 -6 -2 -13 -11 -15 -14 -4 -13 -5 4
-6 24 -1 73 -41 73 -59 0 -6 -5 -14 -12 -18 -7 -5 -8 -3 -3 6 5 9 4 11 -4 6
-6 -4 -9 -11 -6 -16 7 -11 -34 -40 -57 -40 -10 0 -18 -7 -18 -15 0 -8 6 -15
14 -15 7 0 19 -7 26 -15 17 -21 29 -19 23 4 -6 22 23 36 43 20 7 -5 25 -14 41
-19 l28 -8 -30 -1 c-35 -1 -49 -9 -58 -33 -4 -12 4 -21 28 -32 18 -9 35 -21
37 -28 3 -8 9 -8 25 0 19 11 20 9 20 -44 0 -56 12 -82 32 -70 6 4 11 16 11 28
0 17 4 19 27 13 39 -9 41 -14 15 -33 l-22 -17 21 -13 c18 -12 24 -11 43 7 11
11 30 19 41 17 22 -3 33 -26 12 -26 -8 0 -20 -7 -27 -15 -7 -8 -21 -15 -31
-15 -25 0 -24 -12 2 -28 16 -10 18 -16 9 -27 -6 -8 -7 -16 -2 -19 6 -3 12 3
15 15 4 16 11 18 32 13 24 -6 26 -5 19 20 -5 22 -3 26 14 26 12 0 24 5 27 10
9 15 35 -14 35 -39 0 -11 11 -32 24 -46 24 -26 24 -26 60 -8 33 17 36 22 36
62 l0 44 -62 -6 c-39 -4 -55 -2 -43 3 11 5 36 9 56 9 20 1 39 4 43 9 4 4 13 7
19 7 8 0 12 20 12 55 0 49 2 55 20 52 11 -2 16 1 10 5 -16 13 -13 65 3 58 7
-3 10 0 7 6 -4 5 -3 15 2 22 16 20 14 69 -3 88 -12 13 -12 19 -3 25 42 26 189
-17 189 -56 0 -10 7 -23 15 -30 8 -7 15 -9 15 -6 0 4 8 2 19 -3 10 -6 22 -7
26 -3 3 4 12 7 18 7 7 0 20 17 30 38 13 24 25 37 39 37 16 0 19 5 14 24 -3 14
-2 28 4 31 5 3 10 23 10 44 0 50 21 67 93 74 70 7 87 19 87 62 0 19 6 35 13
38 8 3 5 12 -11 29 -19 21 -21 29 -13 51 9 23 6 32 -21 63 -26 30 -32 45 -34
95 -4 74 -12 88 -72 132 -26 20 -59 50 -72 66 -26 35 -35 37 -56 16 -38 -37
-54 12 -18 54 13 16 24 36 24 46 0 26 -50 127 -82 163 -15 18 -28 39 -28 48 0
8 -7 26 -16 40 -10 14 -17 37 -18 52 -1 17 -9 31 -25 39 -14 6 -33 28 -43 47
-13 26 -25 36 -41 36 -13 0 -33 10 -44 23 -30 32 -73 122 -73 152 0 14 -9 33
-20 43 -11 9 -29 25 -41 35 -35 32 -81 41 -151 30z m332 -822 c0 -5 46 -9 103
-8 l102 2 3 -43 c2 -24 -2 -49 -7 -56 -6 -7 -41 -16 -77 -19 -49 -5 -69 -11
-82 -27 -30 -37 -62 -7 -66 62 -1 10 -6 22 -12 26 -18 12 -25 44 -13 58 13 16
49 19 49 5z"/>
<path d="M2190 3482 c-8 -3 -31 -15 -50 -27 -19 -12 -47 -25 -61 -28 -32 -8
-89 -70 -89 -97 0 -10 -5 -30 -11 -44 -23 -49 23 -126 75 -126 14 0 41 -8 61
-17 34 -16 37 -16 67 1 19 12 28 14 23 6 -6 -10 -4 -12 8 -7 19 7 22 -4 6 -20
-35 -35 56 -66 111 -38 44 23 69 18 106 -19 44 -44 45 -74 2 -67 -5 0 -8 -3
-8 -8 0 -5 -12 -12 -27 -16 -41 -10 -56 -25 -42 -41 6 -8 8 -14 4 -14 -4 0 -2
-7 5 -15 11 -13 10 -14 -6 -9 -10 4 -24 11 -31 16 -18 14 -45 -36 -51 -93 -4
-45 -2 -51 17 -56 27 -7 27 -28 -1 -56 -13 -13 -23 -29 -23 -37 0 -8 -8 -35
-18 -58 l-18 -44 -19 25 c-11 14 -35 34 -54 45 -29 17 -37 18 -46 7 -7 -8 -9
-18 -6 -23 3 -6 -2 -16 -12 -23 -16 -13 -16 -12 -2 6 14 19 14 19 -5 4 -11 -9
-33 -19 -48 -23 -24 -6 -28 -11 -23 -30 4 -16 -1 -29 -15 -42 -11 -10 -20 -14
-19 -9 3 15 -11 55 -19 55 -4 0 -25 15 -47 34 -28 24 -53 36 -79 38 -42 3 -71
33 -77 78 -3 24 -1 25 57 24 33 -1 87 -9 120 -18 32 -9 80 -16 106 -16 29 0
51 -6 59 -15 16 -19 30 -19 55 3 35 30 63 76 68 113 6 48 -2 58 -49 66 -21 3
-46 11 -54 18 -8 7 -25 16 -37 19 -36 11 -73 69 -73 115 0 29 -6 46 -22 61
-29 27 -60 20 -108 -23 -19 -18 -46 -39 -60 -48 -20 -13 -24 -23 -22 -56 2
-33 -1 -41 -24 -53 -26 -14 -26 -17 -22 -88 l5 -74 -29 6 c-22 4 -38 0 -60
-17 -79 -60 -100 -84 -118 -136 -16 -49 -16 -58 -3 -119 9 -37 20 -73 25 -79
15 -18 59 -16 88 5 14 9 45 18 70 18 25 1 61 5 80 9 24 5 48 2 73 -9 31 -12
37 -20 37 -45 0 -30 27 -50 49 -37 5 4 19 -7 31 -24 12 -16 18 -30 14 -30 -4
0 6 -10 22 -22 16 -13 38 -33 49 -46 20 -23 21 -23 55 -6 19 9 45 26 58 37 30
28 52 9 30 -25 -11 -16 -14 -40 -11 -80 2 -33 0 -59 -7 -63 -5 -3 -10 -18 -10
-33 0 -15 -7 -37 -15 -50 -15 -20 -18 -45 -15 -102 1 -14 -3 -38 -9 -54 -10
-24 -15 -27 -39 -21 -15 4 -27 7 -27 8 -1 1 -13 17 -28 35 -15 19 -25 38 -21
43 3 5 1 9 -5 9 -14 0 -28 60 -36 150 -3 41 -8 96 -11 122 l-6 46 -29 -16
c-20 -12 -27 -22 -22 -32 4 -8 8 -38 11 -67 3 -47 1 -53 -22 -69 -24 -15 -33
-15 -87 -4 -62 13 -89 30 -89 55 0 8 -11 22 -25 31 -34 22 -70 7 -91 -39 -9
-17 -23 -45 -31 -62 -23 -42 -26 -151 -6 -197 14 -34 20 -38 52 -38 20 0 47
-9 61 -20 14 -11 35 -20 47 -20 35 0 53 -11 53 -31 0 -23 -32 -26 -50 -4 -18
21 -28 19 -60 -13 -25 -25 -28 -36 -29 -96 0 -45 4 -75 14 -89 8 -11 12 -30 9
-42 -3 -13 4 -31 19 -49 20 -23 26 -44 32 -115 6 -72 11 -89 31 -108 13 -12
24 -31 24 -42 0 -26 110 -101 149 -101 32 0 44 11 58 55 13 39 44 40 54 2 4
-16 19 -40 33 -54 32 -32 32 -34 0 -72 l-26 -31 16 -67 c18 -79 49 -112 107
-113 21 0 42 -7 50 -17 17 -19 70 -43 99 -43 30 0 51 52 37 95 -14 48 -3 77
42 102 51 29 66 29 93 -2 12 -14 25 -25 29 -25 4 0 24 -10 44 -21 l36 -22 -25
-26 c-14 -15 -26 -33 -26 -39 0 -9 -13 -12 -39 -11 -86 6 -118 -56 -60 -114
18 -17 35 -43 39 -57 6 -22 12 -25 51 -25 39 0 44 -3 47 -24 2 -13 -6 -37 -18
-53 -16 -21 -20 -37 -15 -56 9 -37 84 -132 104 -132 9 0 30 -9 47 -19 26 -16
42 -18 93 -12 34 4 67 13 74 20 6 6 14 48 18 92 6 90 15 105 55 95 26 -7 124
-95 124 -112 0 -3 -16 -24 -35 -45 -19 -22 -35 -45 -35 -52 0 -14 42 -56 98
-97 37 -28 117 -35 185 -17 56 15 66 48 62 194 -2 65 -5 125 -6 133 -8 55 19
66 58 24 l25 -27 19 32 c10 17 19 36 19 41 0 15 17 12 23 -4 7 -17 58 -27 74
-14 7 5 17 7 22 3 17 -10 7 -43 -21 -72 -27 -29 -58 -102 -58 -138 0 -11 -12
-37 -26 -58 -34 -51 -29 -79 17 -92 21 -5 46 -18 57 -29 17 -14 27 -16 49 -9
18 6 37 6 56 -1 20 -8 33 -7 47 2 11 6 28 16 38 20 65 32 77 42 80 66 3 26 -2
32 -81 104 -15 13 -17 26 -11 68 5 47 4 53 -16 59 -11 4 -28 21 -36 39 -11 22
-23 32 -42 34 -40 3 -39 12 1 12 28 0 40 6 53 25 8 13 13 29 9 35 -3 5 -1 10
5 10 17 0 -7 38 -28 44 -22 7 -49 52 -53 88 -3 19 4 36 25 57 37 38 29 51 -9
15 -15 -14 -34 -23 -41 -20 -16 6 -19 72 -4 81 6 3 10 18 10 32 0 25 0 26 -20
8 -11 -10 -20 -13 -20 -7 0 6 -8 19 -19 29 -10 10 -22 33 -26 51 -4 19 -13 32
-22 32 -14 0 -14 -2 1 -19 14 -15 15 -24 6 -40 -13 -25 -11 -25 -57 -6 -41 17
-63 14 -63 -10 0 -19 -31 -17 -38 3 -2 7 2 10 12 6 13 -5 13 -2 3 20 -7 14
-14 26 -17 26 -3 0 -19 -13 -36 -30 -18 -16 -35 -26 -38 -23 -3 4 -6 -1 -6
-10 0 -18 -34 -24 -44 -9 -3 5 -26 10 -52 10 -37 2 -44 0 -36 -10 8 -10 1 -12
-35 -9 l-46 3 21 -23 c37 -39 -9 -68 -51 -32 -11 10 -17 12 -13 6 12 -22 -105
-9 -158 17 -25 13 -46 27 -46 32 0 4 -13 8 -29 8 -45 0 -81 17 -81 39 0 27
-19 31 -62 14 -24 -10 -38 -22 -40 -36 -2 -12 -10 -22 -18 -22 -12 0 -15 14
-15 60 -1 109 -4 123 -21 121 -9 -1 -29 -18 -45 -37 -23 -28 -30 -32 -41 -21
-15 15 -14 122 2 132 5 3 7 16 3 28 -4 18 -8 20 -19 11 -8 -6 -14 -20 -14 -30
0 -24 -16 -25 -28 -2 -10 18 -11 17 -78 -32 -23 -17 -47 8 -74 77 -14 35 -34
82 -46 104 -11 21 -26 59 -34 83 -8 24 -20 45 -27 48 -18 7 -16 33 3 33 8 0
13 3 11 8 -3 4 5 8 18 8 13 1 26 -5 30 -14 5 -12 10 -9 25 16 25 40 55 44 46
6 -5 -18 -2 -32 10 -45 21 -23 38 -25 30 -2 -12 29 16 32 46 4 17 -14 39 -44
50 -66 22 -42 37 -57 50 -49 9 6 -16 59 -39 85 -20 23 -14 99 9 113 23 14 41
-10 57 -76 9 -31 18 -48 28 -48 9 0 22 -8 29 -17 12 -17 13 -17 14 3 0 12 11
32 25 45 32 31 32 63 0 77 -14 6 -25 17 -25 23 0 7 -8 18 -17 26 -10 8 -13 12
-7 9 15 -7 44 36 44 64 0 14 -7 20 -22 20 -17 0 -19 -3 -10 -12 15 -15 16 -38
2 -38 -5 0 -10 8 -10 18 0 24 -38 55 -61 49 -22 -6 -44 18 -53 58 -4 16 -12
33 -18 36 -5 3 -12 26 -15 50 -5 38 -4 42 9 32 13 -11 15 -2 13 72 -1 47 2 88
6 91 11 6 42 -65 40 -93 -1 -30 36 -110 55 -117 9 -3 31 -6 50 -6 24 0 36 -5
40 -17 3 -10 10 -26 15 -35 5 -11 5 -19 -1 -23 -6 -3 -10 -1 -10 5 0 6 -5 8
-10 5 -8 -5 -7 -11 1 -21 10 -12 14 -12 20 -3 6 10 13 10 33 1 21 -10 26 -9
26 3 0 19 -47 122 -60 130 -13 8 -13 52 0 60 6 3 10 -1 10 -9 0 -22 43 -91 48
-77 2 7 -1 18 -7 24 -14 14 -14 44 0 52 12 8 59 -33 58 -49 0 -6 -3 -5 -6 2
-2 6 -9 9 -14 6 -6 -3 -5 -11 2 -20 9 -12 9 -13 -3 -9 -9 4 -18 -1 -22 -12 -5
-12 1 -23 19 -36 17 -13 23 -23 16 -31 -5 -6 -11 -27 -13 -46 -3 -33 -5 -35
-40 -37 -28 -2 -38 2 -38 12 0 8 -7 15 -15 15 -25 0 -17 -15 25 -46 40 -30 55
-74 25 -74 -8 0 -15 6 -15 13 0 17 -38 52 -47 44 -3 -4 2 -15 11 -26 10 -11
13 -21 7 -25 -5 -4 -12 -2 -16 4 -11 18 -27 11 -20 -10 4 -13 2 -20 -6 -20 -7
0 -10 -3 -7 -6 4 -3 16 -1 27 5 17 10 23 7 38 -16 13 -19 14 -28 5 -31 -17 -5
-15 -32 2 -32 8 0 17 -7 20 -16 5 -13 1 -15 -18 -12 -21 4 -25 0 -29 -26 -5
-38 24 -65 68 -62 23 2 38 -6 63 -31 17 -18 32 -37 32 -42 0 -5 14 -14 30 -20
24 -8 30 -7 30 5 0 12 4 12 19 2 14 -8 17 -16 10 -24 -5 -6 -9 -25 -7 -40 1
-16 -4 -39 -10 -50 -6 -12 -13 -36 -14 -53 -1 -17 -8 -31 -15 -31 -7 0 -31
-13 -53 -29 -34 -25 -38 -30 -25 -41 12 -10 15 -10 15 0 0 9 7 7 20 -5 11 -10
20 -26 20 -37 0 -10 5 -18 10 -18 6 0 10 4 10 8 0 4 9 8 19 8 14 0 21 -9 26
-33 7 -40 24 -53 32 -24 3 13 13 21 25 21 15 0 19 5 15 19 -7 30 6 43 34 33
26 -10 73 2 100 24 8 8 20 14 25 14 4 0 -1 -7 -13 -15 -12 -9 -20 -22 -17 -30
3 -8 -4 -20 -15 -27 -24 -15 -28 -38 -6 -38 8 0 15 7 15 16 0 12 6 15 28 10
24 -6 25 -5 10 7 -10 8 -18 17 -18 21 0 12 56 6 77 -9 18 -13 22 -13 33 0 6 8
9 19 6 24 -4 5 -2 12 3 16 13 8 -5 59 -30 81 -10 9 -19 30 -19 45 0 15 -4 31
-10 34 -20 12 -9 30 30 48 22 10 40 24 40 30 1 7 12 25 25 42 19 23 27 27 36
18 10 -10 9 -14 -4 -19 -9 -3 -17 -13 -17 -21 0 -9 -20 -36 -45 -60 -51 -50
-56 -73 -18 -90 22 -11 28 -10 39 5 7 9 14 24 14 33 0 23 26 44 35 29 4 -6 2
-17 -5 -25 -20 -24 6 -25 29 -1 14 15 22 37 23 69 2 46 23 72 34 42 9 -22 23
-18 33 7 l8 22 12 -22 c10 -18 8 -25 -9 -42 -11 -11 -26 -17 -35 -14 -11 5
-15 -1 -15 -18 0 -26 -34 -71 -60 -81 -12 -4 -12 -6 2 -6 9 -1 19 -9 23 -20 3
-10 15 -27 26 -37 20 -18 20 -18 14 9 -9 34 9 36 35 5 16 -20 21 -21 39 -10
13 7 21 8 21 2 0 -23 19 -7 30 25 8 23 16 33 23 28 21 -13 35 -11 41 4 6 14
-18 42 -37 43 -4 0 0 14 9 31 l16 32 -31 -6 c-38 -8 -43 13 -9 35 21 14 21 15
2 14 -10 -1 -25 -5 -32 -10 -17 -10 -15 -2 6 22 13 15 27 20 44 17 22 -4 28 0
36 25 7 18 18 30 28 30 10 0 29 10 43 23 14 12 4 -3 -22 -34 -26 -31 -47 -62
-47 -68 0 -12 48 16 78 46 7 7 20 9 30 5 16 -6 16 -7 0 -10 -16 -3 -17 -5 -2
-19 13 -14 17 -14 25 -2 5 8 9 10 9 5 0 -26 21 15 26 51 5 36 2 43 -22 62 -21
16 -29 19 -35 9 -5 -8 -11 4 -15 30 -4 24 -13 50 -21 58 -10 10 -11 14 -2 14
7 0 9 3 6 6 -4 4 -13 1 -22 -6 -12 -10 -15 -9 -15 5 0 10 -8 28 -17 39 -18 21
-18 21 3 4 27 -24 44 -23 44 2 0 11 5 20 10 20 6 0 10 -13 10 -29 0 -33 16
-49 32 -33 6 6 17 8 24 5 8 -3 14 1 14 10 0 23 26 45 67 56 51 14 54 5 4 -15
-32 -13 -41 -21 -41 -40 0 -31 33 -33 53 -3 9 13 17 16 22 10 3 -6 -5 -22 -20
-35 -30 -28 -25 -61 9 -52 11 3 27 6 34 6 6 0 12 8 12 18 0 25 11 34 25 22 16
-13 49 34 42 61 -4 15 -2 17 11 10 10 -4 24 -6 32 -4 9 3 11 1 5 -4 -18 -14
-36 -53 -30 -63 9 -14 42 6 50 29 6 19 45 37 45 20 0 -5 -7 -9 -15 -9 -23 0
-18 -17 8 -25 21 -7 21 -7 2 -12 -11 -3 -24 -9 -29 -14 -6 -5 -20 -9 -33 -9
-20 0 -23 -5 -23 -41 0 -37 2 -40 17 -28 13 11 17 11 20 2 3 -7 10 -13 16 -13
6 0 19 -8 29 -17 16 -14 21 -15 28 -4 4 8 15 11 23 8 10 -4 14 -1 11 6 -8 22
44 19 56 -3 9 -17 15 -18 31 -10 11 6 17 15 14 21 -6 8 15 13 42 10 7 -1 23 5
37 14 14 10 27 12 30 6 11 -16 87 -6 102 14 16 22 18 39 4 30 -5 -3 -10 1 -10
10 0 9 5 13 10 10 17 -11 11 5 -16 40 -22 29 -29 33 -45 24 -20 -10 -27 -2
-27 31 -1 25 -13 74 -21 82 -4 5 -19 9 -34 10 -31 3 -37 24 -8 24 11 0 17 -4
15 -8 -3 -4 2 -5 10 -2 9 3 16 11 16 17 0 6 -3 7 -7 4 -11 -12 -33 14 -33 39
0 22 -4 24 -42 22 -24 -2 -48 -9 -53 -16 -15 -19 -58 14 -50 39 5 15 1 19 -19
19 -16 0 -27 -7 -31 -20 -4 -12 -11 -17 -18 -13 -6 4 -23 6 -38 5 -17 -1 -29
4 -33 14 -5 13 -1 15 21 9 27 -6 27 -6 9 14 -16 18 -17 23 -5 37 12 15 11 16
-9 10 -22 -7 -27 5 -25 62 1 6 -3 12 -8 12 -5 0 -9 -9 -9 -20 0 -15 -7 -20
-24 -20 -30 0 -60 -38 -46 -56 11 -13 -15 -24 -37 -17 -19 7 -16 22 10 44 l22
20 -25 -7 c-14 -3 -30 -10 -36 -15 -6 -5 -25 -4 -43 1 -18 5 -46 7 -62 3 -17
-3 -29 -1 -29 5 0 18 32 37 57 34 19 -3 24 0 21 14 -3 15 -13 19 -55 20 -46 1
-52 -2 -58 -23 -3 -12 -12 -23 -20 -23 -8 0 -15 -5 -15 -11 0 -7 -12 -10 -30
-7 -18 3 -31 0 -34 -9 -3 -7 -10 -13 -16 -13 -17 0 -11 28 8 39 15 9 15 10 -5
11 -14 0 -23 -6 -23 -14 0 -8 -4 -17 -9 -20 -16 -10 -41 5 -41 25 0 10 -5 19
-12 19 -6 0 -2 9 10 20 12 12 22 25 22 31 0 6 10 8 23 4 21 -6 21 -5 3 9 -21
17 -15 49 9 40 19 -8 19 -5 -2 37 -17 34 -17 34 -23 9 -7 -31 -41 -41 -35 -11
2 12 0 21 -5 21 -5 0 -10 -12 -12 -27 -4 -38 -34 -42 -43 -6 -3 15 -12 31 -18
35 -18 11 35 27 55 17 10 -6 19 -5 23 1 3 5 3 11 -2 12 -4 0 -12 2 -18 3 -5 1
-18 5 -28 10 -9 4 -29 4 -45 0 -15 -4 -27 -6 -27 -4 0 1 -10 -3 -22 -10 -20
-10 -22 -9 -16 6 9 25 24 33 44 23 12 -7 21 -5 28 4 9 11 20 12 44 5 18 -6 40
-12 50 -14 28 -6 38 -16 30 -28 -3 -7 3 -4 14 6 21 18 21 18 28 -2 3 -12 13
-21 21 -21 9 0 14 -11 14 -29 0 -17 5 -33 10 -36 15 -9 12 -23 -9 -44 -20 -20
-20 -20 1 -46 11 -14 23 -23 26 -20 4 3 0 10 -8 15 -13 8 -11 13 8 32 21 21
22 22 22 3 0 -11 4 -16 8 -10 4 6 20 21 36 33 l28 22 -25 9 c-14 5 -35 7 -47
4 -17 -4 -21 -2 -18 8 3 8 15 13 28 11 12 -1 30 3 39 10 14 12 15 11 1 -6 -14
-18 -13 -19 18 -13 31 6 32 6 32 -28 0 -33 14 -48 22 -25 2 7 11 5 23 -4 16
-13 17 -17 6 -25 -8 -5 -9 -11 -3 -15 6 -3 8 -15 5 -26 -4 -13 0 -20 10 -20
17 0 29 47 13 53 -6 3 0 16 15 31 l25 27 36 -33 c19 -18 38 -40 41 -48 4 -12
6 -12 6 -1 1 8 9 20 19 28 16 14 16 14 -2 9 -12 -4 -26 1 -38 14 -18 20 -19
23 -4 39 17 19 22 61 7 61 -5 0 -8 11 -6 25 l2 25 -25 -25 c-23 -23 -25 -64
-2 -50 5 3 10 0 10 -8 0 -8 -8 -17 -19 -20 -13 -3 -17 0 -14 12 2 9 -3 25 -12
36 -9 11 -14 14 -10 8 3 -7 4 -13 0 -13 -3 0 -10 12 -16 27 -11 30 6 50 28 31
10 -8 12 -7 7 6 -4 9 -3 16 2 15 5 -1 20 3 34 9 24 11 25 11 4 17 l-22 7 25
43 c13 24 30 49 38 55 8 7 15 18 15 24 0 6 11 32 23 57 21 42 25 45 47 37 l24
-9 -26 -22 c-16 -13 -29 -37 -33 -60 -7 -42 -39 -81 -60 -74 -13 6 -8 -30 12
-83 10 -24 11 -23 54 38 24 34 49 60 56 57 16 -6 46 31 37 46 -4 7 -7 32 -5
56 2 28 -2 43 -9 43 -8 0 -10 9 -6 24 3 14 1 26 -5 28 -5 2 -7 11 -3 21 3 10
13 16 20 13 9 -3 14 2 14 14 0 21 -15 27 -25 10 -4 -6 -10 -8 -15 -5 -12 8
-40 -5 -40 -19 0 -11 -46 -66 -56 -66 -3 0 -3 9 1 19 8 25 -15 39 -30 18 -7
-9 -20 -14 -31 -11 -31 8 -49 -19 -33 -48 19 -35 22 -141 5 -154 -8 -5 -14
-19 -13 -29 1 -11 -5 -21 -16 -23 -15 -3 -17 2 -11 36 5 34 3 41 -14 46 -11 4
-23 14 -26 22 -3 8 -10 12 -16 9 -6 -4 -8 -11 -5 -16 3 -5 -1 -6 -10 -3 -9 4
-14 12 -11 19 2 6 -6 25 -20 41 -13 16 -23 38 -23 49 0 15 3 12 13 -10 17 -37
51 -69 66 -60 6 3 9 1 8 -7 -2 -8 7 -13 26 -13 28 0 30 3 33 43 2 32 -1 42
-12 42 -8 0 -14 3 -14 8 5 28 -4 42 -28 48 -16 4 -34 14 -42 23 -12 14 -13 14
-8 0 7 -20 -69 -93 -89 -85 -8 3 -14 11 -15 18 0 7 -4 3 -9 -10 -5 -12 -18
-25 -27 -29 -10 -3 -25 -12 -33 -19 -23 -19 -54 -21 -56 -4 -3 36 -5 40 -19
40 -8 0 -15 -4 -15 -10 0 -5 5 -10 10 -10 6 0 10 -4 10 -10 0 -5 -13 -10 -30
-10 -20 0 -30 5 -30 15 0 8 -5 15 -10 15 -6 0 3 14 20 30 l32 31 -27 21 c-17
13 -25 27 -22 39 3 12 0 19 -9 19 -8 0 -14 7 -14 15 0 18 -12 19 -27 4 -13
-13 -33 -4 -33 16 0 7 -7 15 -15 19 -8 3 -12 12 -9 21 3 8 1 15 -5 15 -6 0
-11 7 -11 15 0 8 5 15 10 15 6 0 10 22 10 49 0 48 -1 49 -35 55 -20 4 -40 4
-47 0 -7 -4 -8 -3 -4 5 4 6 0 14 -8 17 -9 3 -13 10 -10 15 3 5 1 25 -5 44 -6
24 -6 35 1 35 6 0 8 11 6 25 -4 17 -1 25 9 25 7 0 16 7 19 15 4 9 19 15 35 15
42 0 36 15 -16 40 -43 21 -63 23 -57 7 1 -5 -2 -5 -8 -2 -8 5 -6 13 5 25 15
17 15 19 -2 28 -17 10 -17 11 0 29 21 24 22 39 3 46 -8 3 -21 20 -30 38 -14
29 -15 35 -1 55 9 14 11 25 5 29 -6 3 -10 11 -10 16 0 6 5 7 10 4 16 -10 11
21 -6 35 -29 25 -67 21 -91 -8 -19 -24 -24 -26 -43 -14 -16 10 -25 10 -35 2
-12 -10 -12 -15 1 -35 22 -34 10 -51 -35 -47 -29 3 -40 0 -45 -13 -5 -13 -2
-16 11 -11 16 6 16 6 0 -12 -9 -10 -17 -25 -17 -32 0 -10 -4 -8 -13 4 -9 13
-20 16 -40 11 -15 -4 -24 -11 -21 -16 3 -5 -1 -6 -9 -4 -18 7 -53 -30 -37 -40
8 -5 6 -13 -6 -26 -15 -16 -15 -19 -2 -19 9 0 21 -7 28 -15 7 -8 15 -13 19
-10 16 9 85 -24 93 -44 4 -11 3 -21 -1 -21 -5 0 -8 -8 -7 -17 2 -13 14 -19 39
-21 41 -4 42 -5 26 -34 -8 -14 -17 -18 -34 -14 -18 5 -27 1 -35 -13 -14 -27 6
-38 30 -16 12 11 20 13 25 5 9 -15 -13 -40 -36 -40 -11 0 -19 -7 -19 -16 0
-12 -7 -15 -25 -12 -15 3 -22 1 -18 -5 4 -6 0 -8 -11 -4 -10 4 -19 1 -22 -8
-4 -8 -16 -15 -28 -15 -19 1 -18 3 10 28 53 45 53 96 0 53 -11 -9 -16 -10 -16
-2 0 6 -6 11 -14 11 -8 0 -16 5 -18 12 -6 18 -51 -17 -55 -43 -2 -13 -12 -29
-24 -37 -11 -7 -28 -23 -38 -33 -18 -19 -19 -19 -26 -2 -5 10 -7 21 -7 26 1 4
-2 7 -8 7 -5 0 -10 -7 -10 -15 0 -36 -59 11 -60 48 0 18 -15 23 -25 7 -9 -15
-34 0 -37 23 -3 13 6 33 21 50 19 21 21 26 8 22 -13 -6 -16 -3 -11 9 6 16 8
16 24 1 12 -10 20 -13 24 -6 4 6 20 8 36 4 31 -6 39 4 18 25 -7 7 -8 12 -3 12
5 0 -1 10 -13 23 -15 16 -22 38 -24 76 -3 56 -4 56 57 82 22 9 26 13 13 16 -9
3 -20 12 -23 22 -3 10 -19 33 -35 50 -23 23 -30 41 -31 73 -3 105 -8 112 -65
103 -35 -5 -44 -3 -44 8 0 24 -28 41 -44 28 -12 -10 -20 -6 -42 18 -30 34 -44
37 -73 19 -19 -11 -31 -9 -66 16 -11 7 -27 11 -35 8z m660 -962 c0 -6 8 -10
18 -8 10 2 17 -3 17 -12 0 -10 -9 -15 -27 -15 -22 1 -25 -2 -17 -17 15 -28 50
-21 79 14 16 18 27 26 27 17 0 -8 4 -22 8 -32 5 -13 4 -18 -6 -17 -29 4 -50 0
-44 -9 3 -5 1 -12 -4 -15 -5 -4 -12 -2 -16 4 -9 14 -25 13 -25 -3 0 -7 -10
-24 -22 -37 -31 -34 -35 -54 -9 -40 11 5 22 14 25 19 4 5 14 7 24 4 11 -3 25
7 40 27 17 23 29 29 43 25 10 -4 19 -2 19 3 0 6 9 8 20 5 11 -3 20 -10 20 -15
0 -6 -9 -8 -20 -5 -11 3 -22 2 -25 -3 -9 -14 45 -18 57 -3 8 10 14 11 22 3 8
-8 3 -18 -19 -36 -16 -13 -30 -29 -30 -36 0 -7 -8 -12 -18 -12 -9 1 -17 -3
-17 -8 0 -13 -26 -38 -40 -38 -6 0 -8 -4 -5 -10 8 -14 -8 -13 -22 1 -6 6 -16
8 -22 5 -6 -4 -2 -15 11 -28 l22 -22 14 22 c8 12 25 22 37 22 13 0 26 7 29 15
3 9 22 23 41 31 22 9 35 21 35 33 0 26 32 52 50 41 8 -5 25 -10 38 -10 12 0
22 -4 22 -10 0 -5 -8 -7 -17 -4 -17 5 -17 5 -2 -8 15 -12 15 -16 3 -33 -8 -10
-14 -31 -14 -45 0 -15 -3 -30 -7 -34 -4 -4 -8 -24 -8 -44 0 -20 -3 -37 -7 -37
-3 0 -18 -11 -33 -25 -22 -21 -29 -22 -45 -12 -14 8 -20 9 -20 1 0 -6 -7 -17
-16 -26 -22 -23 -2 -38 52 -38 36 0 44 -3 44 -18 0 -14 -5 -17 -21 -12 -12 4
-32 1 -45 -5 -19 -11 -26 -10 -39 0 -14 12 -18 11 -25 0 -4 -7 -5 -20 -2 -29
5 -14 3 -14 -11 -2 -9 7 -14 17 -11 22 3 5 2 15 -3 22 -4 6 -8 21 -8 32 -1 45
-37 55 -48 13 -4 -16 -11 -18 -29 -13 -26 9 -77 55 -60 55 6 0 9 7 6 15 -7 17
-33 21 -35 5 -3 -20 -4 -25 -12 -37 -5 -7 -5 -18 -1 -25 4 -6 3 -8 -3 -5 -6 4
-18 -8 -26 -25 -15 -31 -14 -53 3 -43 4 3 10 -5 13 -16 5 -18 2 -20 -18 -15
-20 5 -23 3 -19 -11 4 -13 0 -12 -15 6 -23 26 -26 37 -11 46 16 10 -8 35 -26
28 -18 -7 -18 -28 2 -58 10 -15 12 -25 5 -25 -6 0 -18 12 -28 26 -13 20 -14
30 -6 44 9 13 7 21 -9 37 -13 14 -18 30 -16 49 l4 29 9 -30 c8 -30 31 -54 50
-55 6 0 4 4 -4 9 -9 6 -12 18 -7 37 7 27 15 79 18 114 3 35 -4 46 -31 57 -21
7 -31 19 -34 39 -4 24 -5 23 -4 -6 1 -20 -7 -47 -16 -60 -20 -28 -22 -71 -5
-88 7 -7 8 -12 3 -12 -6 0 -11 -21 -13 -47 -1 -25 -6 -51 -11 -57 -16 -20 -8
-48 18 -64 14 -9 28 -17 30 -19 2 -1 -2 -17 -10 -35 -10 -24 -10 -33 -1 -36
19 -6 14 -22 -8 -22 -11 0 -20 -7 -20 -15 0 -8 -4 -15 -10 -15 -13 0 -13 13 0
26 6 6 13 21 16 35 3 13 8 34 11 47 4 17 1 22 -15 22 -11 0 -25 7 -32 15 -7 8
-19 15 -26 15 -8 0 -14 10 -14 23 0 14 3 18 8 10 11 -18 38 31 47 84 5 35 4
44 -10 49 -10 4 -21 1 -26 -7 -7 -9 -8 -5 -3 14 4 17 2 27 -5 27 -6 0 -11 5
-11 12 0 9 3 9 12 0 19 -19 28 -14 44 23 8 19 19 35 24 35 18 0 10 26 -15 50
-26 24 -33 50 -14 50 5 0 8 -4 5 -9 -3 -4 0 -16 7 -25 12 -16 14 -16 26 -3 10
12 10 19 0 36 -11 16 -10 23 3 38 8 10 18 25 21 33 5 13 6 13 6 0 1 -9 -6 -26
-15 -38 -14 -20 -14 -24 0 -38 12 -11 20 -12 36 -4 21 11 27 30 10 30 -5 0
-10 10 -9 23 0 12 3 16 6 10 9 -24 23 -13 23 17 0 37 24 50 48 26 11 -11 12
-16 4 -16 -7 0 -10 -4 -7 -10 4 -6 15 -2 27 10 12 11 29 22 39 25 9 3 19 15
22 25 5 20 37 28 37 10z m-390 -199 c0 -5 -7 -14 -15 -21 -16 -13 -21 -56 -7
-62 12 -4 23 -78 12 -78 -5 0 -12 4 -15 10 -3 5 -19 -6 -35 -24 -36 -40 -41
-86 -10 -86 21 0 27 -15 10 -25 -5 -3 -10 -17 -10 -31 0 -13 -6 -24 -13 -24
-9 0 -12 10 -10 33 3 26 1 28 -6 12 -13 -27 -13 -95 -1 -95 6 0 10 -16 10 -35
0 -28 -4 -35 -20 -35 -22 0 -60 37 -60 59 0 8 9 24 20 36 18 19 19 26 9 84
l-11 63 32 33 c30 31 31 35 21 71 -6 21 -9 38 -8 39 1 0 15 6 30 13 15 6 30
19 32 27 3 8 7 22 10 30 5 16 35 21 35 6z m1010 -420 c0 -10 -14 -28 -31 -40
-28 -21 -30 -25 -15 -33 11 -6 22 -6 32 2 12 11 18 7 16 -11 -1 -7 63 24 83
41 8 6 11 19 8 27 -5 12 -2 15 10 10 10 -4 17 -2 17 5 0 6 3 8 7 5 3 -4 -2
-16 -12 -27 -17 -19 -16 -20 11 -48 16 -16 37 -28 47 -26 22 3 22 -8 -2 -35
-21 -24 -46 -20 -37 5 3 9 -1 14 -13 14 -14 0 -18 -5 -14 -19 3 -13 -2 -24
-15 -32 -12 -8 -17 -19 -14 -31 4 -18 5 -18 19 2 8 12 21 19 28 16 7 -2 22 4
33 14 11 10 23 16 26 13 3 -4 6 -1 6 7 0 10 3 10 15 0 20 -17 14 -35 -11 -35
-10 0 -19 -7 -19 -15 0 -9 8 -14 20 -12 16 2 17 1 5 -7 -8 -6 -26 -7 -39 -4
-21 5 -23 3 -19 -15 5 -16 -1 -24 -22 -34 -16 -7 -26 -17 -22 -23 3 -5 -2 -4
-10 3 -9 8 -18 23 -20 35 -3 18 -9 22 -37 19 -19 -1 -32 0 -28 4 3 3 0 13 -8
20 -17 18 -9 45 13 42 22 -4 27 20 5 24 -10 2 -28 -6 -40 -19 -23 -24 -53 -31
-53 -12 0 15 21 53 34 61 7 5 6 8 -3 8 -8 0 -19 -6 -25 -14 -10 -12 -76 -31
-76 -22 0 20 17 36 39 37 23 2 24 2 4 6 -29 5 -28 11 2 46 15 16 30 25 37 21
8 -5 9 -2 5 9 -6 16 8 34 16 20 2 -5 2 -2 0 6 -5 19 18 32 34 19 7 -6 13 -18
13 -27z m-460 -141 c3 -1 -4 -5 -14 -9 -19 -7 -19 -8 2 -29 27 -27 27 -32 5
-32 -16 -1 -15 -3 4 -19 26 -21 20 -35 -9 -20 -11 6 -18 19 -17 32 4 41 -1 57
-16 57 -8 0 -15 -5 -15 -11 0 -5 -4 -7 -10 -4 -5 3 -10 4 -10 1 0 -2 -3 -12
-6 -20 -5 -12 -2 -15 11 -10 14 6 15 2 10 -30 -6 -27 -4 -36 5 -34 7 2 15 -3
17 -10 4 -9 -1 -13 -13 -10 -12 2 -21 15 -25 33 l-6 30 -11 -28 c-15 -36 -16
-34 8 -59 11 -12 20 -25 20 -30 0 -4 -9 -8 -20 -8 -11 0 -20 -4 -20 -9 0 -5
-3 -18 -7 -28 -6 -15 -4 -16 8 -6 8 7 20 8 27 4 8 -4 24 -6 38 -3 17 3 24 0
24 -11 0 -9 8 -20 17 -25 15 -9 15 -11 1 -25 -9 -9 -18 -13 -22 -10 -3 4 -6 2
-6 -3 0 -6 5 -15 11 -21 6 -6 9 -19 7 -29 -8 -31 -29 32 -23 67 5 29 5 29 -45
29 -38 0 -50 -4 -50 -15 0 -12 -3 -13 -19 -3 -12 7 -18 20 -15 34 2 13 -2 24
-11 28 -8 3 -15 14 -15 25 0 12 -9 21 -27 25 -46 12 -53 -34 -12 -80 11 -11
19 -27 19 -36 0 -20 24 -30 39 -15 8 8 11 7 11 -3 0 -7 8 -22 18 -33 13 -16
14 -19 2 -15 -8 3 -26 9 -40 13 l-25 8 20 -23 c13 -15 15 -21 5 -18 -15 5 -42
48 -55 87 -4 13 -15 31 -24 40 -20 20 -37 114 -21 119 5 2 10 15 10 28 0 20 5
24 28 24 15 0 23 -4 17 -8 -18 -13 -14 -40 5 -35 12 3 21 -5 30 -27 7 -17 18
-29 24 -27 6 2 21 0 34 -4 20 -8 21 -7 12 11 -6 10 -9 23 -8 27 5 17 -24 54
-37 49 -8 -3 -17 -1 -20 5 -4 5 1 12 9 15 9 3 16 12 16 20 0 8 9 14 19 14 24
0 93 39 87 49 -4 5 37 6 54 1z m-10 -161 c0 -12 5 -19 13 -16 6 2 11 15 9 28
-1 16 1 20 6 11 5 -7 26 -15 48 -19 21 -3 44 -9 49 -13 6 -5 27 -11 48 -15 20
-4 38 -12 39 -19 0 -6 2 -15 3 -21 2 -5 3 -19 4 -29 1 -15 4 -17 12 -9 6 6 19
9 28 6 9 -4 6 3 -8 15 -13 12 -21 22 -16 22 4 0 2 7 -5 15 -21 25 -5 28 41 6
23 -12 49 -21 56 -21 7 0 13 -4 13 -9 0 -5 -8 -8 -17 -7 -14 1 -18 -7 -18 -29
-1 -42 3 -47 27 -34 13 7 18 17 15 30 -3 12 2 23 14 29 22 12 24 4 5 -29 -8
-14 -11 -31 -9 -39 4 -9 -1 -13 -13 -11 -10 1 -32 -3 -47 -9 -16 -7 -32 -12
-37 -12 -4 0 -15 -11 -24 -25 -22 -33 -49 -34 -40 -1 5 21 3 24 -15 19 -17 -4
-19 -8 -10 -19 9 -11 8 -14 -4 -14 -9 0 -19 5 -23 11 -4 7 -23 9 -50 5 -24 -3
-44 -5 -44 -3 0 1 -4 17 -9 35 -6 18 -6 30 -1 27 10 -6 22 23 14 36 -3 5 -11
9 -17 9 -15 0 -67 47 -67 61 0 6 5 7 11 3 9 -5 10 4 5 31 -5 25 -4 35 3 30 6
-3 11 -15 11 -26z m150 -739 c0 -5 15 -10 33 -10 21 0 36 -7 45 -20 18 -29 32
-25 32 10 l0 31 23 -21 c15 -15 32 -20 55 -18 53 6 85 -50 50 -89 -10 -10 -19
-29 -21 -42 -2 -13 -13 -29 -25 -35 -11 -6 -21 -15 -22 -21 -2 -20 -40 -76
-55 -81 -8 -4 -21 -1 -29 5 -7 6 -38 14 -67 17 -30 3 -66 12 -80 19 -22 12
-30 12 -52 0 -25 -13 -29 -11 -76 26 -27 21 -58 39 -69 39 -18 0 -52 24 -52
36 0 16 23 44 37 44 19 0 83 -38 101 -60 11 -13 14 -12 31 8 22 26 53 29 72 6
12 -14 14 -14 21 6 4 12 3 28 -4 40 -10 15 -8 22 10 37 14 11 23 31 25 50 1
18 5 33 10 33 4 0 7 -4 7 -10z"/>
<path d="M2745 2990 c-3 -5 -2 -16 2 -26 5 -13 3 -16 -10 -11 -20 8 -34 -14
-39 -62 -2 -20 2 -36 9 -38 7 -3 10 3 6 15 -6 24 8 34 27 21 13 -8 13 -10 0
-20 -13 -9 -12 -10 3 -5 10 3 21 6 23 6 3 0 2 5 -1 10 -11 19 14 10 34 -11 17
-18 26 -20 71 -14 46 6 73 26 57 41 -3 3 -35 6 -71 7 -36 1 -66 4 -66 7 1 3 7
14 15 24 8 11 15 29 15 41 0 17 -6 21 -35 22 -19 1 -37 -3 -40 -7z"/>
<path d="M5380 1983 c-14 -10 -52 -21 -85 -25 -33 -4 -84 -10 -112 -14 -41 -5
-58 -3 -77 10 -24 15 -26 15 -35 -2 -5 -10 -13 -46 -17 -80 -5 -50 -3 -71 11
-102 18 -39 17 -41 -9 -119 -39 -120 -36 -131 46 -155 38 -12 43 -18 58 -61 9
-27 26 -55 38 -63 21 -14 25 -12 65 30 23 25 52 49 64 52 16 5 26 20 33 49 28
106 80 224 104 233 9 3 16 33 20 83 8 89 -5 137 -45 165 -29 20 -29 20 -59 -1z"/>
<path d="M4525 1761 c-9 -28 -21 -51 -26 -51 -6 0 -7 -14 -4 -34 5 -24 3 -36
-8 -42 -8 -5 -17 -22 -21 -39 -11 -52 -12 -54 -18 -61 -4 -3 -4 -12 -2 -19 3
-7 0 -23 -6 -35 -8 -15 -9 -25 -2 -32 7 -7 7 -18 0 -34 -14 -30 -1 -45 16 -21
7 9 19 17 25 17 7 0 19 7 27 15 9 8 22 15 30 15 8 0 17 -7 20 -15 4 -8 13 -15
21 -15 13 0 13 3 3 15 -10 12 -10 19 -2 27 9 9 19 6 43 -11 17 -12 36 -20 44
-17 14 5 29 -20 20 -35 -3 -5 -1 -18 5 -29 8 -15 6 -29 -10 -60 -11 -22 -17
-40 -13 -40 5 0 -7 -9 -24 -20 -18 -11 -33 -24 -33 -28 0 -5 -11 -14 -24 -20
-15 -6 -26 -22 -30 -43 -3 -18 -13 -41 -22 -50 -11 -12 -14 -27 -10 -44 8 -31
18 -32 48 -2 32 31 55 30 75 -4 9 -15 29 -33 44 -39 33 -14 37 -24 45 -98 10
-105 10 -105 54 -99 23 3 46 0 57 -7 23 -16 118 -17 147 -2 88 47 106 68 106
120 1 23 7 52 15 66 31 54 9 113 -46 125 -16 4 -64 29 -104 57 -57 38 -77 57
-83 81 -6 20 -15 31 -23 29 -9 -2 -11 0 -4 6 6 6 19 12 30 14 13 2 21 12 23
30 2 15 11 30 21 33 29 9 61 44 55 60 -4 10 -2 13 8 10 9 -4 14 3 16 21 3 35
-14 54 -47 54 -19 0 -34 10 -49 30 -29 39 -43 38 -36 -2 4 -25 3 -29 -5 -18
-6 8 -11 25 -11 38 0 40 -18 62 -51 62 -40 0 -119 20 -119 31 0 4 5 11 10 14
19 12 11 63 -10 70 -11 4 -23 20 -28 38 l-9 32 -21 -42 c-28 -54 -81 -87 -69
-43 3 13 0 20 -9 20 -17 0 -17 5 -2 30 9 14 10 22 1 31 -8 8 -15 -3 -28 -40z"/>
<path d="M3839 1307 c-1 -4 -2 -12 -3 -17 0 -6 -8 -15 -16 -20 -8 -5 -10 -10
-5 -10 6 0 2 -5 -7 -11 -10 -5 -18 -17 -18 -24 0 -21 -13 -18 -34 6 -13 16
-20 18 -26 10 -12 -20 -74 1 -78 27 -2 13 -8 19 -18 15 -7 -3 -11 -9 -8 -15 3
-5 -6 -20 -19 -32 -25 -23 -28 -66 -6 -66 19 0 8 -30 -21 -58 -37 -38 -41 -61
-6 -38 14 9 27 12 31 7 3 -5 1 -12 -5 -16 -5 -3 -10 -15 -10 -26 0 -15 4 -18
18 -11 9 4 27 7 40 6 13 -1 22 4 22 13 0 9 -6 13 -15 10 -16 -7 -30 9 -16 17
18 12 40 -6 52 -41 11 -35 12 -35 56 -30 24 2 53 13 64 23 17 15 25 16 50 7
16 -6 29 -7 29 -2 0 5 5 9 10 9 6 0 10 -9 10 -21 0 -21 24 -22 26 -1 1 7 2 15
3 18 0 3 15 -3 32 -13 23 -14 29 -23 24 -38 -4 -11 -8 -33 -8 -48 -1 -15 -7
-31 -14 -35 -14 -9 -33 -56 -33 -81 0 -29 50 -45 96 -32 34 10 41 8 54 -9 11
-14 19 -17 30 -10 13 9 13 11 0 20 -13 8 -13 10 2 10 9 0 24 10 32 21 9 14 21
19 31 16 18 -8 97 21 90 33 -3 4 3 14 13 21 15 12 16 12 5 -2 -17 -22 -6 -30
25 -18 67 25 53 95 -22 113 -16 4 -30 15 -33 27 -4 14 -8 17 -13 9 -4 -7 -10
7 -14 33 -5 34 -13 47 -31 55 -14 7 -25 20 -25 30 0 25 -55 82 -79 82 -12 0
-21 5 -21 12 0 6 -7 4 -18 -5 -30 -27 -42 -20 -42 23 0 29 -4 40 -15 40 -8 0
-16 -4 -16 -10 -1 -5 -3 -14 -4 -20 -1 -5 -3 -19 -4 -31 -1 -19 -2 -19 -17 -4
-9 9 -22 14 -30 11 -7 -3 -28 -8 -46 -11 l-34 -6 -3 42 c-2 39 -9 64 -12 46z"/>
<path d="M4436 783 c-3 -3 -6 -21 -6 -38 0 -24 -6 -35 -25 -43 -25 -12 -55 -7
-55 9 0 18 -43 8 -72 -16 -42 -35 -77 -32 -118 10 -30 30 -38 34 -67 29 -18
-3 -39 -2 -46 3 -18 12 -39 10 -67 -9 -14 -9 -38 -20 -55 -24 -40 -9 -55 -22
-55 -49 0 -31 9 -36 36 -19 13 9 28 12 36 8 7 -5 18 -9 23 -10 6 0 16 -2 23
-2 18 -3 11 -32 -12 -56 -19 -19 -19 -20 7 -41 34 -26 34 -55 2 -83 -53 -47
-22 -122 50 -122 17 0 36 -5 42 -11 13 -13 93 -2 93 13 0 12 40 0 61 -18 9 -8
29 -14 45 -13 16 1 36 -1 45 -5 11 -5 21 1 33 19 13 20 24 25 48 23 28 -3 33
2 69 65 21 37 63 97 94 133 77 91 73 117 -27 154 -48 18 -58 26 -68 55 -12 36
-23 49 -34 38z"/>
</g>
</svg>
